# Blender v2.79 (sub 0) OBJ File: 'untitled.blend'
# www.blender.org
mtllib test3.mtl
o Plane
v 0.000072 0.078348 -0.377140
v 6.000072 0.078348 -0.377140
v 0.000072 0.078348 -0.877140
v 6.000072 0.078348 -0.877140
v 5.500072 0.078348 -0.377140
v 5.500072 0.078348 -0.877140
v 6.000072 0.078348 -4.877140
v 5.500072 0.078348 -4.877140
v 5.500072 0.078348 -4.305348
v 6.000072 0.078348 -4.305348
v 0.000072 0.078348 -4.877140
v 0.000072 0.078348 -4.305348
v 0.000072 3.078348 -0.877140
v 0.000072 3.078348 -0.377140
v 5.500072 3.078348 -0.377140
v 6.000072 3.078348 -0.377140
v 6.000072 3.078348 -0.877140
v 5.500072 3.078348 -0.877140
v 6.000072 3.078348 -4.877140
v 5.500072 3.078348 -4.877140
v 5.500072 3.078348 -4.305348
v 6.000072 3.078348 -4.305348
v 0.000072 3.078348 -4.877140
v 0.000072 3.078348 -4.305348
vt -0.210278 -0.025589
vt -0.011420 -0.025589
vt -0.011420 0.153903
vt -0.210278 0.153903
vt -0.210279 -2.000000
vt -0.011421 -2.000000
vt 1.352031 -0.025590
vt 1.579442 -0.025590
vt 1.579442 0.153902
vt 1.352031 0.153902
vt 1.352031 -2.000000
vt 1.579442 -2.000000
vt -0.210279 -0.025590
vt -0.210279 0.153902
vt -0.409137 0.153902
vt -0.409137 -0.025590
vt -0.210280 -2.000000
vt -0.409137 -2.000000
vt -1.772589 -0.025589
vt -1.772589 0.153902
vt -2.000000 0.153902
vt -2.000000 -0.025589
vt -2.000000 -2.000000
vt -1.772589 -2.000000
vt 3.000000 -0.923049
vt 2.772589 -0.923049
vt 2.772589 -2.000000
vt 3.000000 -2.000000
vt 0.386295 0.153902
vt 0.386295 2.128313
vt -0.806852 2.128313
vt -0.806853 0.153903
vt 2.971447 0.153902
vt 2.772589 0.153902
vt 2.772589 -0.923049
vt 2.971447 -0.923049
vt 2.772589 -0.025590
vt 2.772589 0.153902
vt 0.386295 2.128313
vt 0.386295 0.153903
vt 1.579442 0.153902
vt 1.579443 2.128313
vt -2.000000 2.307805
vt -2.000000 0.333394
vt -0.806853 0.333394
vt -0.806852 2.307805
vt 1.579443 1.589837
vt 1.579443 0.359166
vt 2.772590 0.359167
vt 2.772590 1.589837
vt -2.000000 0.153903
vt -0.806853 0.153902
vt 2.772589 1.769329
vt 2.772590 3.000000
vt 1.579443 3.000000
vt 1.579443 1.769329
vt 2.772589 -2.000000
vt 1.579443 1.769329
vt 2.772590 1.769329
vn 0.0000 -1.0000 0.0000
vn 0.0000 1.0000 0.0000
vn -1.0000 0.0000 0.0000
vn 0.0000 0.0000 -1.0000
vn 0.0000 0.0000 1.0000
vn 1.0000 0.0000 0.0000
usemtl Material.001
s off
f 5/1/1 6/2/1 4/3/1 2/4/1
f 1/5/1 3/6/1 6/2/1 5/1/1
f 9/7/1 8/8/1 7/9/1 10/10/1
f 6/2/1 9/7/1 10/10/1 4/3/1
f 9/7/1 12/11/1 11/12/1 8/8/1
f 15/13/2 16/14/2 17/15/2 18/16/2
f 14/17/2 15/13/2 18/16/2 13/18/2
f 21/19/2 22/20/2 19/21/2 20/22/2
f 18/16/2 17/15/2 22/20/2 21/19/2
f 21/19/2 20/22/2 23/23/2 24/24/2
f 11/25/3 12/26/3 24/27/3 23/28/3
f 6/29/4 3/30/4 13/31/4 18/32/4
f 3/33/3 1/34/3 14/35/3 13/36/3
f 7/9/4 8/8/4 20/37/4 19/38/4
f 12/39/5 9/40/5 21/41/5 24/42/5
f 1/43/5 5/44/5 15/45/5 14/46/5
f 4/47/6 10/48/6 22/49/6 17/50/6
f 5/44/5 2/51/5 16/52/5 15/45/5
f 9/53/3 6/54/3 18/55/3 21/56/3
f 8/8/4 11/12/4 23/57/4 20/37/4
f 2/58/6 4/47/6 17/50/6 16/59/6
f 10/48/6 7/9/6 19/38/6 22/49/6
